<svg width="34" height="34" viewBox="0 0 34 34" fill="none" xmlns="http://www.w3.org/2000/svg">
<g clip-path="url(#clip0_531_4)">
<path d="M8.28906 7.86166L10.4393 10.0119C10.5736 9.25033 10.9768 8.5336 11.5592 7.99605C12.9926 6.65217 15.322 6.60738 16.7555 7.95125C16.8451 8.04084 16.9347 8.13044 17.0242 8.22003C17.6066 8.89196 17.965 9.74308 17.965 10.639C17.965 10.8182 17.965 10.9974 17.9202 11.1318C17.8306 11.9829 17.4722 12.7444 16.8451 13.3715C16.3075 13.9091 15.6356 14.2675 14.874 14.4018L17.0242 16.552L19.6224 13.9539C19.6672 13.9091 19.6672 13.9091 19.712 13.9091C19.712 13.9091 19.712 13.9091 19.7568 13.9091C19.8016 13.9091 19.8016 13.9091 19.8464 13.9091C19.8912 13.9091 19.936 13.9091 19.936 13.9091C20.0256 13.9539 20.1152 14.0435 20.1152 14.1779C20.1152 15.029 20.4735 15.7905 21.0559 16.3729C21.683 17 22.4893 17.3136 23.3404 17.3136C23.3404 17.3136 23.3404 17.3136 23.3852 17.3136C23.654 17.3136 23.878 17.2688 24.1468 17.224C24.7291 17.0896 25.2667 16.776 25.6698 16.3281C26.3866 15.5217 26.6553 14.4466 26.4314 13.4163C26.297 12.8788 26.0282 12.386 25.6698 11.9829C25.4459 11.7589 25.1771 11.5349 24.9083 11.4005C24.6395 11.2661 24.3708 11.1765 24.102 11.087C23.9676 11.0422 23.8332 11.0422 23.6988 10.9974C23.6092 10.9974 23.4748 10.9974 23.3852 10.9974C23.2509 10.9974 23.1613 10.9078 23.1165 10.8182C23.0717 10.7286 23.1165 10.5942 23.1613 10.5046L25.7594 7.90646L18.5025 0.604743C17.6962 -0.201581 16.3523 -0.201581 15.546 0.604743L8.28906 7.86166Z" fill="white"/>
<path d="M33.4177 15.5217L26.1608 8.2648L24.0106 10.415C24.7721 10.5494 25.4888 10.9525 26.0264 11.4901C27.3703 12.9236 27.415 15.2529 26.0712 16.6864C25.3544 17.4479 24.4137 17.8959 23.3834 17.8959C22.3531 17.9407 21.3676 17.5375 20.6509 16.776C20.1133 16.2385 19.755 15.5665 19.6206 14.805L17.4256 17L20.0237 19.5981C20.1133 19.6877 20.1133 19.8221 20.0685 19.9117C20.0237 20.0013 19.9342 20.0909 19.7998 20.0909C18.9486 20.0909 18.1871 20.4493 17.6048 21.0316C16.9776 21.6587 16.6641 22.4651 16.6641 23.361C16.6641 24.2121 17.0224 25.0184 17.6944 25.6456C17.8735 25.8248 18.0975 26.0039 18.3663 26.0935C19.531 26.7207 21.054 26.5415 22.0844 25.6008C22.7115 25.0184 23.0699 24.2121 23.0699 23.361C23.0699 23.2266 23.1595 23.137 23.249 23.0922C23.3386 23.0474 23.473 23.0922 23.5626 23.137L26.1608 25.7352L33.4177 18.4782C33.8208 18.0751 34.0448 17.5375 34.0448 17C34.0448 16.4176 33.8208 15.9249 33.4177 15.5217Z" fill="white"/>
<path d="M23.6074 23.9882C23.473 24.7497 23.0699 25.4664 22.4875 26.004C21.0541 27.3479 18.7247 27.3927 17.2912 26.0488C16.5297 25.332 16.0817 24.3913 16.0817 23.361C16.0817 22.5995 16.3057 21.838 16.7089 21.2108C16.8432 20.9869 17.0224 20.8077 17.2016 20.6285C17.7392 20.0909 18.4111 19.7326 19.1726 19.5982L17.0224 17.4032L14.4243 20.0014C14.3347 20.1357 14.2003 20.1357 14.1107 20.0909C14.0211 20.0461 13.9315 19.9566 13.9315 19.8222C13.9315 18.971 13.5732 18.2095 12.9908 17.6272C12.3637 17 11.5573 16.6865 10.6614 16.6865C10.5718 16.6865 10.4375 16.6865 10.3479 16.6865C9.58633 16.7761 8.9144 17.1344 8.37685 17.672C7.52573 18.5679 7.34654 19.9118 7.7497 21.0317C7.7497 21.0764 7.7945 21.1212 7.7945 21.166C7.7945 21.2108 7.8393 21.2556 7.8393 21.3004C7.97368 21.5692 8.15287 21.838 8.37685 22.062C8.95919 22.6891 9.76552 23.0475 10.6166 23.0475C10.751 23.0475 10.8406 23.1371 10.8854 23.2266C10.9302 23.3162 10.8854 23.4506 10.8406 23.5402L8.24246 26.1384L15.4994 33.3953C16.3057 34.2016 17.6496 34.2016 18.4559 33.3953L25.7128 26.1384L23.6074 23.9882Z" fill="white"/>
<path d="M0.627141 18.4782L7.88406 25.7352L10.0343 23.585C9.27273 23.4506 8.55599 23.0474 8.01845 22.4651C6.67457 21.0316 6.62978 18.7022 7.97365 17.2688C8.69038 16.5072 9.63109 16.0593 10.6614 16.0593C11.6917 16.0593 12.6772 16.4176 13.3939 17.1792C13.9315 17.7167 14.2899 18.3887 14.4242 19.1502L16.5744 17L13.9763 14.4018C13.8867 14.3122 13.8867 14.1778 13.9315 14.0883C13.9763 13.9987 14.0659 13.9091 14.2003 13.9091C15.0514 13.9091 15.8129 13.5507 16.3953 12.9684C16.4848 12.8788 16.5296 12.7892 16.6192 12.7444C17.112 12.162 17.336 11.4453 17.336 10.6838C17.336 9.83266 16.9776 9.02633 16.3057 8.39919C15.0962 7.2793 13.1252 7.2793 11.9605 8.44399C11.3333 9.02633 10.975 9.83266 10.975 10.6838C10.975 10.8182 10.8854 10.9078 10.7958 10.9526C10.7062 10.9973 10.5718 10.9526 10.4822 10.9078L7.88406 8.3096L0.627141 15.5217C0.223979 15.9249 0 16.4176 0 17C0 17.5823 0.223979 18.0751 0.627141 18.4782Z" fill="white"/>
</g>
<defs>
<clipPath id="clip0_531_4">
<rect width="34" height="34" fill="white"/>
</clipPath>
</defs>
</svg>
