<svg width="28" height="28" viewBox="0 0 28 28" fill="none" xmlns="http://www.w3.org/2000/svg">
<path d="M14.4825 20.8614L19.9988 24.3563C20.704 24.8031 21.5794 24.1386 21.3702 23.3155L19.7764 17.0459C19.7315 16.8713 19.7368 16.6875 19.7917 16.5158C19.8466 16.3441 19.9489 16.1913 20.0868 16.0751L25.0335 11.9578C25.6835 11.4169 25.348 10.3381 24.5129 10.2839L18.0528 9.86468C17.8788 9.85225 17.7119 9.79064 17.5716 9.68704C17.4312 9.58343 17.3232 9.44208 17.2601 9.27946L14.8507 3.2121C14.7852 3.03949 14.6688 2.89089 14.5168 2.78602C14.3649 2.68116 14.1846 2.625 14 2.625C13.8154 2.625 13.6351 2.68116 13.4832 2.78602C13.3312 2.89089 13.2148 3.03949 13.1493 3.2121L10.74 9.27946C10.6768 9.44208 10.5688 9.58343 10.4285 9.68704C10.2881 9.79064 10.1212 9.85225 9.94721 9.86468L3.4871 10.2839C2.65201 10.3381 2.31653 11.4169 2.96651 11.9578L7.91325 16.0751C8.0511 16.1913 8.15336 16.3441 8.20827 16.5158C8.26317 16.6875 8.26849 16.8713 8.2236 17.0459L6.74553 22.8603C6.49444 23.848 7.54501 24.6453 8.39117 24.1092L13.5175 20.8614C13.6617 20.7696 13.8291 20.7208 14 20.7208C14.1709 20.7208 14.3383 20.7696 14.4825 20.8614V20.8614Z" stroke="#217BF4" stroke-width="1.5" stroke-linecap="round" stroke-linejoin="round"/>
</svg>
