<svg width="22" height="22" viewBox="0 0 22 22" fill="none" xmlns="http://www.w3.org/2000/svg">
<path d="M18.7627 5.13052C19.623 4.61485 20.2836 3.79833 20.5947 2.82546C19.7897 3.30287 18.898 3.64962 17.9489 3.83652C17.1889 3.02676 16.1061 2.52075 14.9078 2.52075C12.6067 2.52075 10.7412 4.38621 10.7412 6.6871C10.7412 7.01365 10.7781 7.33165 10.8491 7.63658C7.38636 7.46283 4.31635 5.80411 2.2614 3.28341C1.90276 3.89876 1.6973 4.61448 1.6973 5.37802C1.6973 6.82348 2.43292 8.09876 3.55087 8.8459C2.86784 8.82428 2.22545 8.63687 1.66365 8.32481C1.66335 8.34219 1.66335 8.35964 1.66335 8.37717C1.66335 10.3959 3.09953 12.0799 5.00554 12.4626C4.65589 12.5578 4.28782 12.6087 3.90779 12.6087C3.63934 12.6087 3.37831 12.5826 3.12397 12.5339C3.65412 14.1893 5.1928 15.3938 7.01599 15.4275C5.59007 16.5449 3.79355 17.211 1.84155 17.211C1.50528 17.211 1.17361 17.1913 0.847656 17.1528C2.69149 18.335 4.88156 19.0247 7.23446 19.0247C14.898 19.0247 19.0887 12.676 19.0887 7.17024C19.0887 6.98958 19.0847 6.80989 19.0767 6.63124C19.8907 6.04382 20.5971 5.30998 21.1557 4.47445C20.4085 4.80583 19.6055 5.02979 18.7627 5.13052Z" fill="#2B2B39"/>
</svg>
