<svg width="34" height="34" viewBox="0 0 34 34" fill="none" xmlns="http://www.w3.org/2000/svg">
<path fill-rule="evenodd" clip-rule="evenodd" d="M17.1936 17.7498C19.8371 17.7498 21.9801 15.6068 21.9801 12.9632C21.9801 10.3197 19.8371 8.17664 17.1936 8.17664C14.55 8.17664 12.407 10.3197 12.407 12.9632C12.407 15.6068 14.55 17.7498 17.1936 17.7498Z" fill="white"/>
<path fill-rule="evenodd" clip-rule="evenodd" d="M21.3475 17.2141C20.2713 18.2402 18.8063 18.8716 17.1923 18.8716C15.5783 18.8716 14.1133 18.2402 13.0371 17.2141C12.8517 17.1682 12.6664 17.1228 12.4864 17.0998C12.3064 17.0768 12.1323 17.0768 11.97 17.1019C11.8081 17.1265 11.6586 17.1767 11.4839 17.2392C11.3093 17.3012 11.1101 17.376 10.8607 17.5255C10.6118 17.6751 10.3121 17.8994 10.0259 18.2739C9.73907 18.6472 9.46508 19.1713 9.21566 19.7946C8.96624 20.4174 8.74192 21.1407 8.61748 21.8388C8.49303 22.5364 8.46793 23.21 8.45565 23.7207C8.44283 24.2319 8.44283 24.5812 8.49303 24.9177C8.5427 25.2542 8.64204 25.5779 8.8669 25.9022C9.09121 26.2264 9.43998 26.5506 9.85122 26.7996C10.2625 27.049 10.7362 27.2237 11.3846 27.3107C12.0324 27.3978 12.8549 27.3978 13.8521 27.3978H16.7437H17.1923H17.6409H20.5325C21.5296 27.3978 22.3521 27.3978 23 27.3107C23.6484 27.2237 24.1221 27.049 24.5334 26.7996C24.9446 26.5506 25.2934 26.2264 25.5177 25.9022C25.7425 25.5779 25.8419 25.2542 25.8915 24.9177C25.9417 24.5812 25.9417 24.2319 25.9289 23.7207C25.9166 23.21 25.8915 22.5364 25.7671 21.8388C25.6427 21.1407 25.4183 20.4174 25.1689 19.7946C24.9195 19.1713 24.6455 18.6472 24.3587 18.2739C24.0724 17.8994 23.7728 17.6751 23.5239 17.5255C23.2745 17.376 23.0753 17.3012 22.9006 17.2392C22.726 17.1767 22.5764 17.1265 22.4146 17.1019C22.2523 17.0768 22.0781 17.0768 21.8982 17.0998C21.7182 17.1228 21.5328 17.1682 21.3475 17.2141Z" fill="white"/>
<path fill-rule="evenodd" clip-rule="evenodd" d="M22.2929 15.3221C23.1436 16.0988 24.2763 16.5731 25.519 16.5731C28.1618 16.5731 30.3043 14.4301 30.3043 11.7865C30.3043 9.14298 28.1618 6.99994 25.519 6.99994C23.8218 6.99994 22.3303 7.88397 21.4812 9.21669C22.4392 10.0916 23.0406 11.3523 23.0406 12.7523C23.0406 13.6977 22.7661 14.5802 22.2929 15.3221Z" fill="white"/>
<path fill-rule="evenodd" clip-rule="evenodd" d="M11.7071 15.3221C10.8564 16.0988 9.72372 16.5731 8.48105 16.5731C5.83816 16.5731 3.69566 14.4301 3.69566 11.7865C3.69566 9.14298 5.83816 6.99994 8.48105 6.99994C10.1782 6.99994 11.6697 7.88397 12.5188 9.21669C11.5608 10.0916 10.9594 11.3523 10.9594 12.7523C10.9594 13.6977 11.2339 14.5802 11.7071 15.3221Z" fill="white"/>
<path fill-rule="evenodd" clip-rule="evenodd" d="M29.4097 16.2142C28.3652 17.2093 26.9552 17.8337 25.3977 17.8701L25.5697 18.0762C25.8567 18.4496 26.1308 18.9736 26.3803 19.597C26.6298 20.2198 26.8542 20.9431 26.9787 21.6412C27.1032 22.3388 27.1283 23.0124 27.1406 23.523C27.1534 24.0342 27.1534 24.3836 27.1032 24.7201C27.0535 25.0566 26.9541 25.3803 26.7292 25.7045C26.5619 25.946 26.3258 26.1879 26.0463 26.3979H28.5944C29.5919 26.3979 30.4147 26.3979 31.0628 26.3108C31.7115 26.2237 32.1854 26.0491 32.5968 25.7996C33.0082 25.5507 33.3571 25.2265 33.5815 24.9022C33.8064 24.578 33.9058 24.2543 33.9555 23.9178C34.0057 23.5813 34.0057 23.2319 33.9929 22.7207C33.9806 22.2101 33.9555 21.5365 33.831 20.8389C33.7065 20.1408 33.4821 19.4175 33.2326 18.7947C32.9831 18.1713 32.709 17.6473 32.4221 17.2739C32.1357 16.8995 31.836 16.6751 31.587 16.5256C31.3375 16.376 31.1382 16.3012 30.9635 16.2393C30.7887 16.1768 30.6391 16.1266 30.4772 16.102C30.3148 16.0769 30.1406 16.0769 29.9606 16.0999C29.7805 16.1228 29.5951 16.1682 29.4097 16.2142Z" fill="white"/>
<path fill-rule="evenodd" clip-rule="evenodd" d="M4.59028 16.2142C5.63482 17.2093 7.04483 17.8337 8.60229 17.8701L8.43025 18.0762C8.14334 18.4496 7.86924 18.9736 7.61973 19.597C7.37021 20.2198 7.14581 20.9431 7.02132 21.6412C6.89683 22.3388 6.87171 23.0124 6.85943 23.523C6.8466 24.0342 6.8466 24.3836 6.89683 24.7201C6.94652 25.0566 7.04589 25.3803 7.27083 25.7045C7.43807 25.946 7.67423 26.1879 7.95366 26.3979H5.40561C4.40808 26.3979 3.58527 26.3979 2.93717 26.3108C2.28854 26.2237 1.81462 26.0491 1.40321 25.7996C0.991804 25.5507 0.64291 25.2265 0.418506 24.9022C0.193567 24.578 0.0941887 24.2543 0.0444994 23.9178C-0.00572395 23.5813 -0.00572395 23.2319 0.00709915 22.7207C0.0193872 22.2101 0.0444994 21.5365 0.16899 20.8389C0.293481 20.1408 0.517884 19.4175 0.7674 18.7947C1.01692 18.1713 1.29101 17.6473 1.57792 17.2739C1.86431 16.8995 2.16405 16.6751 2.41303 16.5256C2.66254 16.376 2.86183 16.3012 3.03655 16.2393C3.21126 16.1768 3.36087 16.1266 3.52276 16.102C3.68518 16.0769 3.85936 16.0769 4.03942 16.0999C4.21948 16.1228 4.40488 16.1682 4.59028 16.2142Z" fill="white"/>
</svg>
