<svg width="22" height="22" viewBox="0 0 22 22" fill="none" xmlns="http://www.w3.org/2000/svg">
<path d="M10.9539 3.25418C13.4748 3.25418 13.7498 3.25418 14.7581 3.30002C15.6748 3.34585 16.1789 3.48335 16.4998 3.62085C16.9123 3.75835 17.2789 4.03335 17.5998 4.30835C17.9206 4.62918 18.1498 4.99585 18.2873 5.40835C18.4248 5.72918 18.5623 6.23335 18.6081 7.15001C18.6539 8.15835 18.6539 8.43335 18.6539 10.9542C18.6539 13.475 18.6539 13.75 18.6081 14.7583C18.5623 15.675 18.4248 16.1792 18.2873 16.5C17.9664 17.325 17.3248 17.9667 16.4998 18.2875C16.1789 18.425 15.6748 18.5625 14.7581 18.6083C13.7498 18.6542 13.4748 18.6542 10.9539 18.6542C8.4331 18.6542 8.1581 18.6542 7.14977 18.6083C6.23311 18.5625 5.72894 18.425 5.4081 18.2875C4.9956 18.15 4.62894 17.875 4.3081 17.6C3.98727 17.2792 3.75811 16.9125 3.62061 16.5C3.48311 16.1792 3.34561 15.675 3.29977 14.7583C3.25394 13.75 3.25394 13.475 3.25394 10.9542C3.25394 8.43335 3.25394 8.15835 3.29977 7.15001C3.34561 6.23335 3.48311 5.72918 3.62061 5.40835C3.75811 4.99585 4.0331 4.62918 4.3081 4.30835C4.62894 3.98751 4.9956 3.75835 5.4081 3.62085C5.72894 3.48335 6.23311 3.34585 7.14977 3.30002C8.1581 3.25418 8.47894 3.25418 10.9539 3.25418ZM10.9539 1.55835C8.38727 1.55835 8.06644 1.55835 7.0581 1.60418C6.04977 1.65002 5.36227 1.78752 4.76644 2.06252C4.1706 2.29168 3.62061 2.65835 3.16227 3.11668C2.70394 3.57502 2.29144 4.17085 2.06227 4.76668C1.83311 5.36251 1.64977 6.05001 1.60394 7.05835C1.55811 8.06668 1.55811 8.38751 1.55811 10.9542C1.55811 13.5208 1.55811 13.8417 1.60394 14.85C1.64977 15.8583 1.78727 16.5458 2.06227 17.1417C2.29144 17.7375 2.65811 18.3333 3.16227 18.7917C3.62061 19.25 4.21644 19.6625 4.81227 19.8917C5.4081 20.1208 6.0956 20.3042 7.10394 20.35C8.11227 20.3958 8.4331 20.3958 10.9998 20.3958C13.5664 20.3958 13.8873 20.3958 14.8956 20.35C15.9039 20.3042 16.5914 20.1667 17.1873 19.8917C18.4706 19.3875 19.4331 18.425 19.9373 17.1417C20.1664 16.5458 20.3498 15.8583 20.3956 14.85C20.4414 13.8417 20.4414 13.5208 20.4414 10.9542C20.4414 8.38751 20.4414 8.06668 20.3956 7.05835C20.3498 6.05001 20.2123 5.36251 19.9373 4.76668C19.7081 4.12501 19.3414 3.57502 18.8373 3.11668C18.3789 2.65835 17.7831 2.24585 17.1873 2.01668C16.5914 1.78752 15.9039 1.60418 14.8956 1.55835C13.8414 1.55835 13.5206 1.55835 10.9539 1.55835Z" fill="#2B2B39"/>
<path d="M10.9526 6.1416C8.2943 6.1416 6.14014 8.29577 6.14014 10.9541C6.14014 13.6124 8.2943 15.7666 10.9526 15.7666C13.611 15.7666 15.7651 13.6124 15.7651 10.9541C15.811 8.29577 13.6568 6.1416 10.9526 6.1416ZM10.9526 14.1166C9.21097 14.1166 7.83597 12.6958 7.83597 10.9999C7.83597 9.25827 9.25681 7.88327 10.9526 7.88327C12.6943 7.88327 14.0693 9.3041 14.0693 10.9999C14.1151 12.6958 12.6943 14.1166 10.9526 14.1166Z" fill="#2B2B39"/>
<path d="M15.9969 7.10417C16.6297 7.10417 17.1427 6.59116 17.1427 5.95833C17.1427 5.32551 16.6297 4.8125 15.9969 4.8125C15.3641 4.8125 14.8511 5.32551 14.8511 5.95833C14.8511 6.59116 15.3641 7.10417 15.9969 7.10417Z" fill="#2B2B39"/>
</svg>
