<svg width="35" height="34" viewBox="0 0 35 34" fill="none" xmlns="http://www.w3.org/2000/svg">
<path fill-rule="evenodd" clip-rule="evenodd" d="M11.6349 17.3045C15.1525 17.3045 18.0042 14.4528 18.0042 10.9352C18.0042 7.41756 15.1525 4.56592 11.6349 4.56592C8.11726 4.56592 5.26562 7.41756 5.26562 10.9352C5.26562 14.4528 8.11726 17.3045 11.6349 17.3045Z" fill="white"/>
<path fill-rule="evenodd" clip-rule="evenodd" d="M17.1641 16.5915C15.7321 17.9569 13.7827 18.797 11.635 18.797C9.48726 18.797 7.53784 17.9569 6.10581 16.5915C5.8592 16.5304 5.61259 16.47 5.37309 16.4394C5.13359 16.4088 4.9019 16.4088 4.68585 16.4422C4.47051 16.4749 4.27152 16.5417 4.03913 16.6249C3.80673 16.7074 3.54165 16.8069 3.20975 17.0059C2.87857 17.2049 2.47988 17.5034 2.09895 18.0017C1.71731 18.4985 1.35273 19.1958 1.02084 20.0253C0.688946 20.854 0.390458 21.8164 0.224867 22.7454C0.0592772 23.6737 0.0258748 24.57 0.00952903 25.2495C-0.00752747 25.9297 -0.00752747 26.3945 0.0592772 26.8423C0.125371 27.2901 0.257559 27.7208 0.556758 28.1523C0.855247 28.5837 1.31933 29.0152 1.86656 29.3464C2.41378 29.6783 3.04416 29.9107 3.90694 30.0266C4.769 30.1425 5.86346 30.1425 7.19032 30.1425H11.038H11.635H12.2319H16.0796C17.4064 30.1425 18.5009 30.1425 19.363 30.0266C20.2257 29.9107 20.8561 29.6783 21.4034 29.3464C21.9506 29.0152 22.4147 28.5837 22.7132 28.1523C23.0124 27.7208 23.1445 27.2901 23.2106 26.8423C23.2774 26.3945 23.2774 25.9297 23.2604 25.2495C23.244 24.57 23.2106 23.6737 23.045 22.7454C22.8795 21.8164 22.581 20.854 22.2491 20.0253C21.9172 19.1958 21.5526 18.4985 21.171 18.0017C20.79 17.5034 20.3913 17.2049 20.0602 17.0059C19.7283 16.8069 19.4632 16.7074 19.2308 16.6249C18.9984 16.5417 18.7994 16.4749 18.5841 16.4422C18.368 16.4088 18.1363 16.4088 17.8968 16.4394C17.6573 16.47 17.4107 16.5304 17.1641 16.5915Z" fill="white"/>
<path fill-rule="evenodd" clip-rule="evenodd" d="M18.4239 14.0739C19.5558 15.1074 21.063 15.7385 22.7166 15.7385C26.2333 15.7385 29.0843 12.8869 29.0843 9.36927C29.0843 5.85164 26.2333 3 22.7166 3C20.4583 3 18.4736 4.17634 17.3438 5.94973C18.6186 7.11398 19.4187 8.79141 19.4187 10.6544C19.4187 11.9124 19.0535 13.0866 18.4239 14.0739Z" fill="white"/>
<path fill-rule="evenodd" clip-rule="evenodd" d="M27.8933 15.2609C26.5034 16.585 24.6271 17.4159 22.5547 17.4643L22.7836 17.7386C23.1654 18.2355 23.5301 18.9327 23.8621 19.7622C24.1942 20.591 24.4928 21.5534 24.6584 22.4824C24.8241 23.4106 24.8575 24.3069 24.8738 24.9864C24.8909 25.6666 24.8909 26.1315 24.8241 26.5793C24.758 27.0271 24.6257 27.4578 24.3264 27.8892C24.1039 28.2105 23.7896 28.5325 23.4178 28.8118H26.8084C28.1357 28.8118 29.2306 28.8118 30.093 28.696C30.9561 28.5801 31.5867 28.3477 32.1342 28.0158C32.6816 27.6845 33.1459 27.2531 33.4445 26.8217C33.7438 26.3902 33.876 25.9595 33.9421 25.5117C34.009 25.0639 34.009 24.5991 33.9919 23.9188C33.9755 23.2393 33.9421 22.343 33.7765 21.4148C33.6108 20.4858 33.3122 19.5234 32.9802 18.6946C32.6482 17.8652 32.2835 17.1679 31.9017 16.671C31.5206 16.1728 31.1218 15.8743 30.7904 15.6752C30.4584 15.4762 30.1932 15.3767 29.9608 15.2943C29.7283 15.2111 29.5292 15.1443 29.3138 15.1116C29.0976 15.0782 28.8659 15.0782 28.6263 15.1088C28.3867 15.1393 28.14 15.1997 27.8933 15.2609Z" fill="white"/>
</svg>
