<svg width="34" height="34" viewBox="0 0 34 34" fill="none" xmlns="http://www.w3.org/2000/svg">
<path d="M34 13.4615V23.0513C33.9992 23.7447 33.7234 24.4095 33.2331 24.8998C32.7428 25.3901 32.078 25.6659 31.3846 25.6667H30.5128V29.1538C30.5127 29.3195 30.4654 29.4818 30.3765 29.6216C30.2875 29.7614 30.1606 29.873 30.0106 29.9433C29.8605 30.0136 29.6936 30.0397 29.5292 30.0186C29.3649 29.9974 29.2099 29.9299 29.0826 29.8239L24.0944 25.6667H15.6923C14.9989 25.6659 14.3341 25.3901 13.8438 24.8998C13.3535 24.4095 13.0777 23.7447 13.0769 23.0513V22.1795H21.7949C22.9505 22.1781 24.0585 21.7184 24.8756 20.9013C25.6928 20.0841 26.1525 18.9762 26.1538 17.8205V10.8462H31.3846C32.078 10.8469 32.7428 11.1227 33.2331 11.613C33.7234 12.1033 33.9992 12.7681 34 13.4615ZM21.7949 20.4359H9.99077L5.02049 26.2333C4.90457 26.3684 4.75009 26.4647 4.57781 26.5094C4.40553 26.5541 4.22371 26.545 4.05676 26.4833C3.88982 26.4216 3.74576 26.3102 3.64394 26.1643C3.54212 26.0183 3.48741 25.8446 3.48718 25.6667V20.4359H2.61538C1.92198 20.4351 1.25718 20.1593 0.766869 19.669C0.276555 19.1787 0.000761495 18.5139 0 17.8205V5.61538C0.000761495 4.92198 0.276555 4.25718 0.766869 3.76687C1.25718 3.27655 1.92198 3.00076 2.61538 3H21.7949C22.4883 3.00076 23.1531 3.27655 23.6434 3.76687C24.1337 4.25718 24.4095 4.92198 24.4103 5.61538V17.8205C24.4095 18.5139 24.1337 19.1787 23.6434 19.669C23.1531 20.1593 22.4883 20.4351 21.7949 20.4359ZM19.1795 13.4615C19.1795 13.2303 19.0876 13.0086 18.9241 12.8451C18.7607 12.6816 18.5389 12.5897 18.3077 12.5897H6.10256C5.87135 12.5897 5.64961 12.6816 5.48611 12.8451C5.32262 13.0086 5.23077 13.2303 5.23077 13.4615C5.23077 13.6928 5.32262 13.9145 5.48611 14.078C5.64961 14.2415 5.87135 14.3333 6.10256 14.3333H18.3077C18.5389 14.3333 18.7607 14.2415 18.9241 14.078C19.0876 13.9145 19.1795 13.6928 19.1795 13.4615ZM19.1795 9.10256C19.1795 8.87135 19.0876 8.6496 18.9241 8.48611C18.7607 8.32262 18.5389 8.23077 18.3077 8.23077H6.10256C5.87135 8.23077 5.64961 8.32262 5.48611 8.48611C5.32262 8.6496 5.23077 8.87135 5.23077 9.10256C5.23077 9.33378 5.32262 9.55552 5.48611 9.71902C5.64961 9.88251 5.87135 9.97436 6.10256 9.97436H18.3077C18.5389 9.97436 18.7607 9.88251 18.9241 9.71902C19.0876 9.55552 19.1795 9.33378 19.1795 9.10256Z" fill="white"/>
</svg>
