<svg width="34" height="34" viewBox="0 0 34 34" fill="none" xmlns="http://www.w3.org/2000/svg">
<path fill-rule="evenodd" clip-rule="evenodd" d="M7.97872 0C5.78134 0 4 1.78134 4 3.97872V30.0213C4 32.2187 5.78134 34 7.97872 34H26.7872C28.9846 34 30.766 32.2187 30.766 30.0213V3.97872C30.766 1.78134 28.9846 0 26.7872 0H7.97872ZM10.8723 4.34043C9.474 4.34043 8.34043 5.474 8.34043 6.87234C8.34043 8.27068 9.474 9.40425 10.8723 9.40425C12.2707 9.40425 13.4043 8.27068 13.4043 6.87234C13.4043 5.474 12.2707 4.34043 10.8723 4.34043ZM8.34043 17C8.34043 15.6017 9.474 14.4681 10.8723 14.4681C12.2707 14.4681 13.4043 15.6017 13.4043 17C13.4043 18.3983 12.2707 19.5319 10.8723 19.5319C9.474 19.5319 8.34043 18.3983 8.34043 17ZM10.8723 24.5957C9.474 24.5957 8.34043 25.7293 8.34043 27.1277C8.34043 28.526 9.474 29.6596 10.8723 29.6596C12.2707 29.6596 13.4043 28.526 13.4043 27.1277C13.4043 25.7293 12.2707 24.5957 10.8723 24.5957ZM18.1064 5.78723C17.5071 5.78723 17.0213 6.27306 17.0213 6.87234C17.0213 7.47162 17.5071 7.95745 18.1064 7.95745H26.7872C27.3865 7.95745 27.8723 7.47162 27.8723 6.87234C27.8723 6.27306 27.3865 5.78723 26.7872 5.78723H18.1064ZM17.0213 17C17.0213 16.4007 17.5071 15.9149 18.1064 15.9149H26.7872C27.3865 15.9149 27.8723 16.4007 27.8723 17C27.8723 17.5993 27.3865 18.0851 26.7872 18.0851H18.1064C17.5071 18.0851 17.0213 17.5993 17.0213 17ZM18.1064 26.0426C17.5071 26.0426 17.0213 26.5284 17.0213 27.1277C17.0213 27.7269 17.5071 28.2128 18.1064 28.2128H26.7872C27.3865 28.2128 27.8723 27.7269 27.8723 27.1277C27.8723 26.5284 27.3865 26.0426 26.7872 26.0426H18.1064Z" fill="white"/>
</svg>
