<svg width="143" height="34" viewBox="0 0 143 34" fill="none" xmlns="http://www.w3.org/2000/svg">
<path d="M52.624 8.224V19.744L45.016 8.224H41.656V25H45.016V13.504L52.624 25H55.984V8.224H52.624ZM65.0164 14.248C66.7444 14.248 68.1364 15.352 68.1844 17.104H61.8724C62.1364 15.28 63.4084 14.248 65.0164 14.248ZM71.3284 20.824H67.7044C67.2724 21.712 66.4804 22.432 65.0404 22.432C63.3604 22.432 62.0164 21.328 61.8484 19.36H71.5684C71.6404 18.928 71.6644 18.496 71.6644 18.064C71.6644 14.104 68.9524 11.488 65.1124 11.488C61.1764 11.488 58.4404 14.152 58.4404 18.352C58.4404 22.528 61.2484 25.216 65.1124 25.216C68.4004 25.216 70.6084 23.272 71.3284 20.824ZM74.6449 20.872C74.6449 23.92 76.3489 25 78.8929 25H81.0049V22.168H79.4449C78.3889 22.168 78.0289 21.784 78.0289 20.896V14.464H81.0049V11.704H78.0289V8.416H74.6449V11.704H73.0609V14.464H74.6449V20.872ZM86.7816 13.648V7.24H83.4216V25H86.7816V23.104C87.5976 24.256 89.0856 25.216 91.1736 25.216C94.5816 25.216 97.2456 22.456 97.2456 18.304C97.2456 14.152 94.5816 11.488 91.1736 11.488C89.1576 11.488 87.5976 12.424 86.7816 13.648ZM93.8136 18.304C93.8136 20.824 92.1096 22.264 90.2856 22.264C88.4856 22.264 86.7816 20.872 86.7816 18.352C86.7816 15.832 88.4856 14.44 90.2856 14.44C92.1096 14.44 93.8136 15.784 93.8136 18.304ZM112.527 18.352C112.527 14.152 109.527 11.488 105.687 11.488C101.847 11.488 98.8473 14.152 98.8473 18.352C98.8473 22.528 101.751 25.216 105.591 25.216C109.455 25.216 112.527 22.528 112.527 18.352ZM102.255 18.352C102.255 15.688 103.863 14.416 105.639 14.416C107.415 14.416 109.071 15.688 109.071 18.352C109.071 20.992 107.367 22.288 105.591 22.288C103.791 22.288 102.255 20.992 102.255 18.352ZM127.832 18.352C127.832 14.152 124.832 11.488 120.992 11.488C117.152 11.488 114.152 14.152 114.152 18.352C114.152 22.528 117.056 25.216 120.896 25.216C124.76 25.216 127.832 22.528 127.832 18.352ZM117.56 18.352C117.56 15.688 119.168 14.416 120.944 14.416C122.72 14.416 124.376 15.688 124.376 18.352C124.376 20.992 122.672 22.288 120.896 22.288C119.096 22.288 117.56 20.992 117.56 18.352ZM130.297 25H133.657V19.336L138.169 25H142.537L136.633 18.376L142.489 11.704H138.121L133.657 17.344V7.24H130.297V25Z" fill="white"/>
<path d="M34.0013 17.0001C34.0013 26.3889 26.3901 34.0001 17.0013 34.0001C13.0609 34.0001 9.43369 32.6595 6.55078 30.4095L24.7833 12.177C25.6535 13.5776 26.1551 15.2294 26.1551 17.0001C26.1551 21.1928 23.3363 24.7271 19.4905 25.8114C18.9167 25.0654 18.0151 24.5847 17.0013 24.5847C15.2679 24.5847 13.8628 25.9898 13.8628 27.7231C13.8628 29.4565 15.2679 30.8616 17.0013 30.8616C18.2989 30.8616 19.4126 30.0741 19.8905 28.9509C25.2853 27.6513 29.2936 22.7938 29.2936 17.0001C29.2936 14.3619 28.4612 11.9162 27.0465 9.9138L30.4107 6.54956C32.6607 9.43247 34.0013 13.0597 34.0013 17.0001Z" fill="#FFAF2E"/>
<path d="M6.95477 24.0862L3.59053 27.4505C1.34058 24.5676 0 20.9403 0 17C0 7.61116 7.61116 0 17 0C20.9403 0 24.5676 1.34058 27.4505 3.59053L9.218 21.823C8.34783 20.4225 7.84615 18.7708 7.84615 17C7.84615 12.8073 10.6649 9.27294 14.5108 8.18866C15.0846 8.93463 15.9861 9.41538 17 9.41538C18.7333 9.41538 20.1385 8.01024 20.1385 6.27692C20.1385 4.54359 18.7333 3.13845 17 3.13845C15.7024 3.13845 14.5887 3.92597 14.1108 5.04914C8.71598 6.34871 4.70768 11.2063 4.70768 17C4.70768 19.6379 5.54001 22.0838 6.95477 24.0862Z" fill="#F04148"/>
<circle cx="16.9991" cy="6.27693" r="1.30769" fill="#F04148"/>
<circle cx="16.9991" cy="27.7232" r="1.30769" fill="#FFAF2E"/>
</svg>
